<?xml version="1.0" encoding="utf-8"?>
<!-- Generator: Adobe Illustrator 19.2.0, SVG Export Plug-In . SVG Version: 6.00 Build 0)  -->
<svg version="1.1" id="Warstwa_1" xmlns="http://www.w3.org/2000/svg" xmlns:xlink="http://www.w3.org/1999/xlink" x="0px" y="0px"
	 viewBox="0 0 32 32" style="enable-background:new 0 0 32 32;" xml:space="preserve">
<style type="text/css">
	.st0{fill:#4B4B4B;}
</style>
<g>
	<path class="st0" d="M23.1,0H8.8C3.9,0,0,3.9,0,8.8v14.3c0,4.8,3.9,8.8,8.8,8.8h14.3c4.8,0,8.8-3.9,8.8-8.8V8.8
		C31.8,3.9,27.9,0,23.1,0z M29,23.1c0,3.3-2.7,6-6,6H8.8c-3.3,0-6-2.7-6-6V8.8c0-3.3,2.7-6,6-6h14.3c3.3,0,6,2.7,6,6L29,23.1
		L29,23.1z"/>
	<path class="st0" d="M15.9,7.7c-4.5,0-8.2,3.7-8.2,8.2c0,4.5,3.7,8.2,8.2,8.2s8.2-3.7,8.2-8.2C24.1,11.4,20.4,7.7,15.9,7.7z
		 M15.9,21.3c-3,0-5.4-2.4-5.4-5.4c0-3,2.4-5.4,5.4-5.4s5.4,2.4,5.4,5.4C21.3,18.9,18.9,21.3,15.9,21.3z"/>
	<path class="st0" d="M24.5,5.3c-0.5,0-1.1,0.2-1.5,0.6c-0.4,0.4-0.6,0.9-0.6,1.5c0,0.5,0.2,1.1,0.6,1.5c0.4,0.4,0.9,0.6,1.5,0.6
		c0.5,0,1.1-0.2,1.5-0.6c0.4-0.4,0.6-0.9,0.6-1.5c0-0.5-0.2-1.1-0.6-1.5C25.6,5.5,25,5.3,24.5,5.3z"/>
</g>
</svg>
