<svg id="Warstwa_1" data-name="Warstwa 1" xmlns="http://www.w3.org/2000/svg" viewBox="0 0 31.98 31.98"><defs><style>.cls-1{fill:#4b4b4b;}</style></defs><title>insta-32</title><path class="cls-1" d="M23.15,0H8.82A8.83,8.83,0,0,0,0,8.82V23.15A8.83,8.83,0,0,0,8.82,32H23.15A8.83,8.83,0,0,0,32,23.15V8.82A8.83,8.83,0,0,0,23.15,0Zm6,23.15a6,6,0,0,1-6,6H8.82a6,6,0,0,1-6-6V8.82a6,6,0,0,1,6-6H23.15a6,6,0,0,1,6,6V23.15h0Z" transform="translate(0)"/><path class="cls-1" d="M16,7.75A8.24,8.24,0,1,0,24.23,16,8.25,8.25,0,0,0,16,7.75Zm0,13.64a5.4,5.4,0,1,1,5.4-5.4A5.41,5.41,0,0,1,16,21.39Z" transform="translate(0)"/><path class="cls-1" d="M24.57,5.34A2.08,2.08,0,1,0,26,6,2.09,2.09,0,0,0,24.57,5.34Z" transform="translate(0)"/></svg>