<?xml version="1.0" encoding="UTF-8" standalone="no"?>
<svg width="412px" height="431px" viewBox="0 0 412 431" version="1.1" xmlns="http://www.w3.org/2000/svg" xmlns:xlink="http://www.w3.org/1999/xlink" xmlns:sketch="http://www.bohemiancoding.com/sketch/ns">
    <title>Untitled</title>
    <description>Created with Sketch (http://www.bohemiancoding.com/sketch)</description>
    <defs>
        <path id="path-1" d="M0.06,-0.319 L411.806,-0.319 L411.806,439.94 L0.06,439.94 L0.06,-0.319 Z"></path>
        <path id="path-3" d="M0.06,-0.319 L411.806,-0.319 L411.806,439.94 L0.06,439.94"></path>
    </defs>
    <g id="Page-1" stroke="none" stroke-width="1" fill="none" fill-rule="evenodd" sketch:type="MSPage">
        <g id="Filament-Logo" sketch:type="MSLayerGroup" transform="translate(0.000000, 1.000000)">
            <g id="Group-3">
                <mask id="mask-2" sketch:name="Clip 2" fill="white">
                    <use xlink:href="#path-1"></use>
                </mask>
                <g id="Clip-2"></g>
                <path d="M202.87,300.927 C199.156,296.604 166.627,188.574 166.627,188.574 C166.627,188.574 140.272,152.598 157.826,130.068 C175.142,107.839 173.633,98.345 213.612,106.769 C253.592,115.192 267.566,132.446 270.178,146.119 C272.791,159.791 263.084,164.21 256.717,165.111 C250.35,166.01 234.371,165.126 191.998,159.062 C149.624,152.998 159.543,178.353 161.966,183.397 C173.252,197.893 183.291,210.044 197.175,209.285 C211.059,208.527 230.861,207.475 246.361,192.199 C261.859,176.922 258.936,163.011 250.504,144.566 C242.07,126.119 264.793,100.967 245.912,85.36 C221.393,65.091 194.813,109.578 189.793,124.052 C184.771,138.526 176.921,185.444 182.368,204.893 C184.434,212.267 200.425,228.61 219.438,211.872 C225.532,202.028 233.295,188.301 213.612,155.438 C193.929,122.576 168.684,103.198 157.826,100.038 C146.965,96.879 142.157,108.44 147.555,132.323 C152.956,156.205 186.531,185.119 195.103,219.12 C203.675,253.126 187.665,295.602 187.337,300.927 C187.008,306.251 151.202,299.779 141.257,280.735 C131.311,261.691 133.674,228.316 126.292,202.028 C118.906,175.741 82.222,125.887 82.227,79.827 C82.231,33.764 147.022,2.182 204.424,2.182 C261.824,2.182 322.414,32.729 322.703,76.221 C322.99,119.713 287.928,184.54 284.02,204.773 C280.115,225.005 281.051,251.223 271.213,279.7 C267.469,283.832 263.072,290.227 251.539,294.715 C240.004,299.203 206.583,305.25 202.87,300.927 L202.87,300.927 Z" id="Stroke-1" stroke="#1A1918" stroke-width="5" sketch:type="MSShapeGroup" mask="url(#mask-2)"></path>
            </g>
            <path d="M101.329,337.966 L89.537,337.966 L89.537,356.309 L100.708,356.309 L100.708,360.723 L89.537,360.723 L89.537,385.547 L84.71,385.547 L84.71,333.553 L101.329,333.553 L101.329,337.966" id="Fill-4" fill="#1A1918" sketch:type="MSShapeGroup"></path>
            <path d="M115.257,333.553 L120.084,333.553 L120.084,385.547 L115.257,385.547 L115.257,333.553 Z" id="Fill-5" fill="#1A1918" sketch:type="MSShapeGroup"></path>
            <path d="M140.081,381.135 L151.39,381.135 L151.39,385.547 L135.254,385.547 L135.254,333.553 L140.081,333.553 L140.081,381.135" id="Fill-6" fill="#1A1918" sketch:type="MSShapeGroup"></path>
            <path d="M175.594,370.72 L172.146,350.747 C171.824,348.997 171.583,347.223 171.422,345.426 C171.26,343.628 171.066,341.854 170.836,340.103 L170.561,340.103 C170.33,341.854 170.112,343.628 169.905,345.426 C169.698,347.223 169.457,348.997 169.181,350.747 L166.146,370.72 L175.594,370.72 L175.594,370.72 Z M183.455,385.547 L178.283,385.547 L176.352,374.86 L165.319,374.86 L163.458,385.547 L158.286,385.547 L168.491,333.553 L173.043,333.553 L183.455,385.547 L183.455,385.547 Z" id="Fill-7" fill="#1A1918" sketch:type="MSShapeGroup"></path>
            <path d="M227.52,385.547 L222.762,385.547 L219.106,347.207 C219.014,346.379 218.956,345.563 218.934,344.759 C218.909,343.954 218.874,343.137 218.83,342.311 L218.555,342.311 C218.323,344.058 218.15,345.771 218.038,347.449 C217.923,349.127 217.704,350.838 217.383,352.584 L211.726,385.547 L207.797,385.547 L202.074,347.207 C201.935,346.379 201.82,345.563 201.729,344.759 C201.636,343.954 201.543,343.137 201.452,342.311 L201.246,342.311 C201.153,344.012 201.107,345.737 201.107,347.481 C201.107,349.184 200.993,350.863 200.763,352.516 L196.625,385.547 L191.936,385.547 L199.246,333.553 L203.383,333.553 L209.244,372.308 C209.383,373.18 209.496,374.044 209.589,374.895 C209.68,375.744 209.771,376.608 209.865,377.48 L210.071,377.48 C210.254,376.007 210.416,374.515 210.555,372.997 C210.692,371.48 210.876,369.986 211.106,368.515 L217.038,333.553 L221.174,333.553 L227.52,385.547" id="Fill-8" fill="#1A1918" sketch:type="MSShapeGroup"></path>
            <path d="M256.482,337.966 L244.965,337.966 L244.965,356.309 L256.136,356.309 L256.136,360.723 L244.965,360.723 L244.965,381.135 L256.482,381.135 L256.482,385.547 L240.139,385.547 L240.139,333.553 L256.482,333.553 L256.482,337.966" id="Fill-9" fill="#1A1918" sketch:type="MSShapeGroup"></path>
            <path d="M291.996,385.547 L287.787,385.547 L276.065,350.587 C275.696,349.53 275.385,348.425 275.135,347.276 C274.88,346.126 274.593,344.999 274.273,343.897 L273.995,343.897 C274.088,345.599 274.203,347.276 274.341,348.931 C274.478,350.587 274.548,352.265 274.548,353.964 L274.548,385.547 L270.342,385.547 L270.342,333.553 L274.548,333.553 L286.478,369.687 C286.799,370.607 287.086,371.505 287.339,372.375 C287.591,373.251 287.834,374.148 288.063,375.066 L288.271,375.066 C288.179,373.917 288.075,372.767 287.962,371.619 C287.845,370.47 287.787,369.32 287.787,368.171 L287.787,333.553 L291.996,333.553 L291.996,385.547" id="Fill-10" fill="#1A1918" sketch:type="MSShapeGroup"></path>
            <path d="M324.061,337.966 L316.268,337.966 L316.268,385.547 L311.441,385.547 L311.441,337.966 L303.649,337.966 L303.649,333.553 L324.061,333.553 L324.061,337.966" id="Fill-11" fill="#1A1918" sketch:type="MSShapeGroup"></path>
            <g id="Group-16">
                <mask id="mask-4" sketch:name="Clip 13" fill="white">
                    <use xlink:href="#path-3"></use>
                </mask>
                <g id="Clip-13"></g>
                <path d="M411.666,101.944 L389.5,100.706 M397.182,9.736 L377.055,19.333 M387.23,185.853 L367.213,176.029 M0.139,105.475 L22.306,104.242 M14.626,13.272 L34.749,22.87 M24.58,189.387 L44.6,179.56" id="Stroke-12" stroke="#1A1918" stroke-width="5" sketch:type="MSShapeGroup" mask="url(#mask-4)"></path>
                <path d="M147.309,408.287 C146.361,407.455 145.286,406.82 144.083,406.381 C142.881,405.943 141.655,405.722 140.407,405.722 C138.951,405.722 137.591,406.006 136.331,406.573 C135.071,407.138 133.979,407.909 133.055,408.879 C132.128,409.849 131.401,410.984 130.87,412.278 C130.337,413.574 130.072,414.949 130.072,416.406 C130.072,417.836 130.332,419.197 130.852,420.479 C131.372,421.762 132.094,422.89 133.02,423.863 C133.943,424.83 135.031,425.601 136.28,426.169 C137.529,426.735 138.881,427.017 140.337,427.017 C141.633,427.017 142.875,426.786 144.066,426.325 C145.257,425.865 146.338,425.19 147.309,424.313 L147.309,428.16 C146.292,428.766 145.181,429.219 143.979,429.531 C142.776,429.842 141.598,430 140.441,430 C138.569,430 136.805,429.653 135.152,428.962 C133.499,428.265 132.054,427.312 130.818,426.097 C129.58,424.885 128.603,423.456 127.886,421.815 C127.169,420.174 126.812,418.404 126.812,416.509 C126.812,414.567 127.176,412.757 127.904,411.078 C128.633,409.406 129.626,407.947 130.886,406.711 C132.147,405.475 133.621,404.502 135.309,403.797 C136.996,403.092 138.8,402.739 140.719,402.739 C141.875,402.739 143.014,402.884 144.136,403.174 C145.257,403.461 146.314,403.91 147.309,404.51 L147.309,408.287" id="Fill-14" fill="#1A1918" sketch:type="MSShapeGroup" mask="url(#mask-4)"></path>
                <path d="M169.297,426.949 C170.708,426.949 172.042,426.677 173.303,426.134 C174.564,425.589 175.674,424.844 176.633,423.896 C177.592,422.948 178.349,421.831 178.905,420.548 C179.459,419.266 179.738,417.873 179.738,416.371 C179.738,414.935 179.483,413.577 178.974,412.294 C178.465,411.011 177.749,409.89 176.823,408.93 C175.899,407.971 174.794,407.21 173.511,406.642 C172.228,406.075 170.824,405.792 169.297,405.792 C167.772,405.792 166.367,406.075 165.083,406.642 C163.8,407.21 162.696,407.971 161.772,408.93 C160.847,409.89 160.129,411.011 159.622,412.294 C159.114,413.577 158.857,414.935 158.857,416.371 C158.857,417.873 159.135,419.266 159.69,420.548 C160.246,421.831 161.002,422.948 161.962,423.896 C162.921,424.844 164.031,425.589 165.292,426.134 C166.551,426.677 167.887,426.949 169.297,426.949 L169.297,426.949 Z M169.297,402.739 C171.17,402.739 172.939,403.099 174.604,403.817 C176.27,404.533 177.72,405.509 178.957,406.744 C180.193,407.983 181.176,409.429 181.904,411.078 C182.633,412.737 182.997,414.496 182.997,416.371 C182.997,418.311 182.638,420.118 181.922,421.782 C181.205,423.443 180.227,424.885 178.991,426.097 C177.753,427.312 176.303,428.265 174.639,428.962 C172.975,429.653 171.192,430 169.297,430 C167.402,430 165.621,429.653 163.956,428.962 C162.292,428.265 160.84,427.312 159.604,426.097 C158.366,424.885 157.389,423.443 156.673,421.782 C155.956,420.118 155.598,418.311 155.598,416.371 C155.598,414.496 155.962,412.737 156.691,411.078 C157.419,409.429 158.401,407.983 159.638,406.744 C160.875,405.509 162.326,404.533 163.991,403.817 C165.656,403.099 167.424,402.739 169.297,402.739 L169.297,402.739 Z" id="Fill-15" fill="#1A1918" sketch:type="MSShapeGroup" mask="url(#mask-4)"></path>
            </g>
            <path d="M195.621,406.278 L195.621,413.631 L204.708,413.631 L204.708,416.612 L195.621,416.612 L195.621,429.446 L192.362,429.446 L192.362,403.295 L205.02,403.295 L205.02,406.278 L195.621,406.278" id="Fill-17" fill="#1A1918" sketch:type="MSShapeGroup"></path>
            <path d="M218.304,406.278 L218.304,413.631 L227.389,413.631 L227.389,416.612 L218.304,416.612 L218.304,429.446 L215.042,429.446 L215.042,403.295 L227.701,403.295 L227.701,406.278 L218.304,406.278" id="Fill-18" fill="#1A1918" sketch:type="MSShapeGroup"></path>
            <path d="M237.758,403.295 L251.805,403.295 L251.805,406.278 L241.02,406.278 L241.02,413.594 L251.494,413.594 L251.494,416.578 L241.02,416.578 L241.02,426.463 L251.805,426.463 L251.805,429.446 L237.758,429.446 L237.758,403.295" id="Fill-19" fill="#1A1918" sketch:type="MSShapeGroup"></path>
            <path d="M262.071,403.295 L276.118,403.295 L276.118,406.278 L265.333,406.278 L265.333,413.594 L275.806,413.594 L275.806,416.578 L265.333,416.578 L265.333,426.463 L276.118,426.463 L276.118,429.446 L262.071,429.446 L262.071,403.295" id="Fill-20" fill="#1A1918" sketch:type="MSShapeGroup"></path>
        </g>
    </g>
</svg>
