<?xml version="1.0" encoding="UTF-8" standalone="no"?>
<svg width="412px" height="431px" viewBox="0 0 412 431" version="1.1" xmlns="http://www.w3.org/2000/svg" xmlns:xlink="http://www.w3.org/1999/xlink" xmlns:sketch="http://www.bohemiancoding.com/sketch/ns">
    <title>Untitled</title>
    <description>Created with Sketch (http://www.bohemiancoding.com/sketch)</description>
    <defs></defs>
    <g id="Page-1" stroke="none" stroke-width="1" fill="none" fill-rule="evenodd" sketch:type="MSPage">
        <g id="Filament-Logo" sketch:type="MSLayerGroup" transform="translate(0.000000, 3.000000)">
            <g id="Group-3" transform="translate(82.000000, 0.000000)" stroke="#1A1918" stroke-width="5" sketch:type="MSShapeGroup">
                <path d="M120.87,298.927 C117.156,294.604 84.627,186.574 84.627,186.574 C84.627,186.574 58.272,150.598 75.826,128.068 C93.142,105.839 91.633,96.345 131.612,104.769 C171.592,113.192 185.566,130.446 188.178,144.119 C190.791,157.791 181.084,162.21 174.717,163.111 C168.35,164.01 152.371,163.126 109.998,157.062 C67.624,150.998 77.543,176.353 79.966,181.397 C91.252,195.893 101.291,208.044 115.175,207.285 C129.059,206.527 148.861,205.475 164.361,190.199 C179.859,174.922 176.936,161.011 168.504,142.566 C160.07,124.119 182.793,98.967 163.912,83.36 C139.393,63.091 112.813,107.578 107.793,122.052 C102.771,136.526 94.921,183.444 100.368,202.893 C102.434,210.267 118.425,226.61 137.438,209.872 C143.532,200.028 151.295,186.301 131.612,153.438 C111.929,120.576 86.684,101.198 75.826,98.038 C64.965,94.879 60.157,106.44 65.555,130.323 C70.956,154.205 104.531,183.119 113.103,217.12 C121.675,251.126 105.665,293.602 105.337,298.927 C105.008,304.251 69.202,297.779 59.257,278.735 C49.311,259.691 51.674,226.316 44.292,200.028 C36.906,173.741 0.222,123.887 0.227,77.827 C0.231,31.764 65.022,0.182 122.424,0.182 C179.824,0.182 240.414,30.729 240.703,74.221 C240.99,117.713 205.928,182.54 202.02,202.773 C198.115,223.005 199.051,249.223 189.213,277.7 C185.469,281.832 181.072,288.227 169.539,292.715 C158.004,297.203 124.583,303.25 120.87,298.927 L120.87,298.927 Z" id="Stroke-1"></path>
            </g>
            <path d="M101.329,335.966 L89.537,335.966 L89.537,354.309 L100.708,354.309 L100.708,358.723 L89.537,358.723 L89.537,383.547 L84.71,383.547 L84.71,331.553 L101.329,331.553 L101.329,335.966" id="Fill-4" fill="#1A1918" sketch:type="MSShapeGroup"></path>
            <path d="M115.257,331.553 L120.084,331.553 L120.084,383.547 L115.257,383.547 L115.257,331.553 Z" id="Fill-5" fill="#1A1918" sketch:type="MSShapeGroup"></path>
            <path d="M140.081,379.135 L151.39,379.135 L151.39,383.547 L135.254,383.547 L135.254,331.553 L140.081,331.553 L140.081,379.135" id="Fill-6" fill="#1A1918" sketch:type="MSShapeGroup"></path>
            <path d="M175.594,368.72 L172.146,348.747 C171.824,346.997 171.583,345.223 171.422,343.426 C171.26,341.628 171.066,339.854 170.836,338.103 L170.561,338.103 C170.33,339.854 170.112,341.628 169.905,343.426 C169.698,345.223 169.457,346.997 169.181,348.747 L166.146,368.72 L175.594,368.72 L175.594,368.72 Z M183.455,383.547 L178.283,383.547 L176.352,372.86 L165.319,372.86 L163.458,383.547 L158.286,383.547 L168.491,331.553 L173.043,331.553 L183.455,383.547 L183.455,383.547 Z" id="Fill-7" fill="#1A1918" sketch:type="MSShapeGroup"></path>
            <path d="M227.52,383.547 L222.762,383.547 L219.106,345.207 C219.014,344.379 218.956,343.563 218.934,342.759 C218.909,341.954 218.874,341.137 218.83,340.311 L218.555,340.311 C218.323,342.058 218.15,343.771 218.038,345.449 C217.923,347.127 217.704,348.838 217.383,350.584 L211.726,383.547 L207.797,383.547 L202.074,345.207 C201.935,344.379 201.82,343.563 201.729,342.759 C201.636,341.954 201.543,341.137 201.452,340.311 L201.246,340.311 C201.153,342.012 201.107,343.737 201.107,345.481 C201.107,347.184 200.993,348.863 200.763,350.516 L196.625,383.547 L191.936,383.547 L199.246,331.553 L203.383,331.553 L209.244,370.308 C209.383,371.18 209.496,372.044 209.589,372.895 C209.68,373.744 209.771,374.608 209.865,375.48 L210.071,375.48 C210.254,374.007 210.416,372.515 210.555,370.997 C210.692,369.48 210.876,367.986 211.106,366.515 L217.038,331.553 L221.174,331.553 L227.52,383.547" id="Fill-8" fill="#1A1918" sketch:type="MSShapeGroup"></path>
            <path d="M256.482,335.966 L244.965,335.966 L244.965,354.309 L256.136,354.309 L256.136,358.723 L244.965,358.723 L244.965,379.135 L256.482,379.135 L256.482,383.547 L240.139,383.547 L240.139,331.553 L256.482,331.553 L256.482,335.966" id="Fill-9" fill="#1A1918" sketch:type="MSShapeGroup"></path>
            <path d="M291.996,383.547 L287.787,383.547 L276.065,348.587 C275.696,347.53 275.385,346.425 275.135,345.276 C274.88,344.126 274.593,342.999 274.273,341.897 L273.995,341.897 C274.088,343.599 274.203,345.276 274.341,346.931 C274.478,348.587 274.548,350.265 274.548,351.964 L274.548,383.547 L270.342,383.547 L270.342,331.553 L274.548,331.553 L286.478,367.687 C286.799,368.607 287.086,369.505 287.339,370.375 C287.591,371.251 287.834,372.148 288.063,373.066 L288.271,373.066 C288.179,371.917 288.075,370.767 287.962,369.619 C287.845,368.47 287.787,367.32 287.787,366.171 L287.787,331.553 L291.996,331.553 L291.996,383.547" id="Fill-10" fill="#1A1918" sketch:type="MSShapeGroup"></path>
            <path d="M324.061,335.966 L316.268,335.966 L316.268,383.547 L311.441,383.547 L311.441,335.966 L303.649,335.966 L303.649,331.553 L324.061,331.553 L324.061,335.966" id="Fill-11" fill="#1A1918" sketch:type="MSShapeGroup"></path>
            <g id="Group-16" transform="translate(0.000000, 8.000000)" stroke="#1A1918" stroke-width="5" sketch:type="MSShapeGroup">
                <path d="M411.666,91.944 L389.5,90.706 M397.182,-0.264 L377.055,9.333 M387.23,175.853 L367.213,166.029 M0.139,95.475 L22.306,94.242 M14.626,3.272 L34.749,12.87 M24.58,179.387 L44.6,169.56" id="Stroke-12"></path>
            </g>
            <path d="M169.699,425.21 C171.11,425.21 172.444,424.938 173.705,424.395 C174.966,423.85 176.076,423.105 177.035,422.157 C177.994,421.209 178.751,420.092 179.307,418.809 C179.861,417.527 180.14,416.134 180.14,414.632 C180.14,413.196 179.885,411.838 179.376,410.555 C178.867,409.272 178.151,408.151 177.225,407.191 C176.301,406.232 175.196,405.471 173.913,404.903 C172.63,404.336 171.226,404.053 169.699,404.053 C168.174,404.053 166.769,404.336 165.485,404.903 C164.202,405.471 163.098,406.232 162.174,407.191 C161.249,408.151 160.531,409.272 160.024,410.555 C159.516,411.838 159.259,413.196 159.259,414.632 C159.259,416.134 159.537,417.527 160.092,418.809 C160.648,420.092 161.404,421.209 162.364,422.157 C163.323,423.105 164.433,423.85 165.694,424.395 C166.953,424.938 168.289,425.21 169.699,425.21 L169.699,425.21 Z M169.699,401 C171.572,401 173.341,401.36 175.006,402.078 C176.672,402.794 178.122,403.77 179.359,405.005 C180.595,406.244 181.578,407.69 182.306,409.339 C183.035,410.998 183.399,412.757 183.399,414.632 C183.399,416.572 183.04,418.379 182.324,420.043 C181.607,421.704 180.629,423.146 179.393,424.358 C178.155,425.573 176.705,426.526 175.041,427.223 C173.377,427.914 171.594,428.261 169.699,428.261 C167.804,428.261 166.023,427.914 164.358,427.223 C162.694,426.526 161.242,425.573 160.006,424.358 C158.768,423.146 157.791,421.704 157.075,420.043 C156.358,418.379 156,416.572 156,414.632 C156,412.757 156.364,410.998 157.093,409.339 C157.821,407.69 158.803,406.244 160.04,405.005 C161.277,403.77 162.728,402.794 164.393,402.078 C166.058,401.36 167.826,401 169.699,401 L169.699,401 Z" id="Fill-15" fill="#1A1918" sketch:type="MSShapeGroup"></path>
            <path d="M147.497,406.548 C146.549,405.716 145.474,405.081 144.271,404.642 C143.069,404.204 141.843,403.983 140.595,403.983 C139.139,403.983 137.779,404.267 136.519,404.834 C135.259,405.399 134.167,406.17 133.243,407.14 C132.316,408.11 131.589,409.245 131.058,410.539 C130.525,411.835 130.26,413.21 130.26,414.667 C130.26,416.097 130.52,417.458 131.04,418.74 C131.56,420.023 132.282,421.151 133.208,422.124 C134.131,423.091 135.219,423.862 136.468,424.43 C137.717,424.996 139.069,425.278 140.525,425.278 C141.821,425.278 143.063,425.047 144.254,424.586 C145.445,424.126 146.526,423.451 147.497,422.574 L147.497,426.421 C146.48,427.027 145.369,427.48 144.167,427.792 C142.964,428.103 141.786,428.261 140.629,428.261 C138.757,428.261 136.993,427.914 135.34,427.223 C133.687,426.526 132.242,425.573 131.006,424.358 C129.768,423.146 128.791,421.717 128.074,420.076 C127.357,418.435 127,416.665 127,414.77 C127,412.828 127.364,411.018 128.092,409.339 C128.821,407.667 129.814,406.208 131.074,404.972 C132.335,403.736 133.809,402.763 135.497,402.058 C137.184,401.353 138.988,401 140.907,401 C142.063,401 143.202,401.145 144.324,401.435 C145.445,401.722 146.502,402.171 147.497,402.771 L147.497,406.548" id="Fill-14" fill="#1A1918" sketch:type="MSShapeGroup"></path>
            <path d="M195.259,404.983 L195.259,412.336 L204.346,412.336 L204.346,415.317 L195.259,415.317 L195.259,428.151 L192,428.151 L192,402 L204.658,402 L204.658,404.983 L195.259,404.983" id="Fill-17" fill="#1A1918" sketch:type="MSShapeGroup"></path>
            <path d="M218.262,404.983 L218.262,412.336 L227.347,412.336 L227.347,415.317 L218.262,415.317 L218.262,428.151 L215,428.151 L215,402 L227.659,402 L227.659,404.983 L218.262,404.983" id="Fill-18" fill="#1A1918" sketch:type="MSShapeGroup"></path>
            <path d="M252.289,401.705 L252.289,404.688 L241.504,404.688 L241.504,412.004 L251.978,412.004 L251.978,414.988 L241.504,414.988 L241.504,424.873 L252.289,424.873 L252.289,427.856 L238.242,427.856 L238.242,401.705 L252.289,401.705 Z" id="Fill-19" fill="#1A1918" sketch:type="MSShapeGroup"></path>
            <path d="M262,402 L276.047,402 L276.047,404.983 L265.262,404.983 L265.262,412.299 L275.735,412.299 L275.735,415.283 L265.262,415.283 L265.262,425.168 L276.047,425.168 L276.047,428.151 L262,428.151 L262,402" id="Fill-20" fill="#1A1918" sketch:type="MSShapeGroup"></path>
        </g>
    </g>
</svg>